#!OML:ASF F:\VICON\USERDATA\INSTALL\rory3\rory3.ASF
:FULLY-SPECIFIED
:DEGREES
2034
root -4.95539 17.0143 2.17147 -0.527848 21.0642 8.72218
lowerback 14.2753 0.15677 0.394355
upperback 1.7923 0.282946 -0.0722499
thorax -6.10596 0.136559 -0.354764
lowerneck -21.6475 -7.70987 -14.1784
upperneck 22.1287 -7.12118 4.38419
head 11.5132 -3.88087 2.74696
rclavicle -4.30369e-014 -1.11319e-014
rhumerus 22.2594 30.4419 -57.3597
rradius 60.7669
rwrist 21.1759
rhand 2.79249 18.9998
rfingers 7.12502
rthumb 28.2623 -8.88843
lclavicle -4.30369e-014 -1.11319e-014
lhumerus -1.93156 -41.2261 88.9785
lradius 119.124
lwrist -3.1588
lhand 2.9557 6.62088
lfingers 7.12502
lthumb 28.4182 34.4832
rfemur -25.4409 -7.30827 2.36818
rtibia 50.7107
rfoot -15.1472 -7.6418
rtoes 4.81895
lfemur -17.208 -9.09732 5.48442
ltibia 52.3859
lfoot 24.3994 -17.8574
ltoes -20.7232
2035
root -4.94132 16.9839 2.1399 -0.154793 21.1335 8.91715
lowerback 14.1885 0.2473 0.400353
upperback 1.71127 0.396347 -0.169439
thorax -6.1423 0.190236 -0.482347
lowerneck -21.631 -7.54619 -14.2101
upperneck 22.1391 -6.7968 4.08403
head 11.4723 -3.77558 2.69758
rclavicle 3.61788e-014 1.27222e-014
rhumerus 20.1201 32.0336 -58.3666
rradius 61.9829
rwrist 16.2317
rhand 2.63623 17.7538
rfingers 7.12502
rthumb 28.1129 -10.159
lclavicle 3.61788e-014 1.27222e-014
lhumerus -2.09423 -40.98 88.6463
lradius 119.281
lwrist -3.90181
lhand 2.69492 6.13147
lfingers 7.12502
lthumb 28.169 34.0351
rfemur -26.0045 -7.564 2.13497
rtibia 51.0348
rfoot -15.2835 -7.63832
rtoes 3.98405
lfemur -17.3283 -8.66049 5.1756
ltibia 53.4641
lfoot 23.006 -17.512
ltoes -19.9568
2036
root -4.92479 16.9502 2.11211 0.285633 21.2022 9.04341
lowerback 14.0545 0.253792 0.672945
upperback 1.54621 0.425342 -0.469553
thorax -6.23882 0.192805 -0.95895
lowerneck -21.6396 -7.32377 -13.9807
upperneck 22.2895 -6.52766 3.95843
head 11.4891 -3.65436 2.66342
rclavicle -2.71341e-014 1.11319e-014
rhumerus 17.6834 33.3655 -60.1136
rradius 63.3349
rwrist 11.3637
rhand 2.87592 16.645
rfingers 7.12502
rthumb 28.342 -11.23
lclavicle -2.71341e-014 1.11319e-014
lhumerus -2.28444 -40.8381 88.088
lradius 119.515
lwrist -4.25095
lhand 2.44439 6.00726
lfingers 7.12502
lthumb 27.9295 33.9501
rfemur -26.6818 -7.67549 1.96632
rtibia 51.4241
rfoot -15.4653 -7.67522
rtoes 3.15319
lfemur -17.4543 -8.12502 4.95534
ltibia 54.4103
lfoot 23.0276 -17.3618
ltoes -14.3219
2037
root -4.90694 16.9106 2.08322 0.715337 21.2741 9.36433
lowerback 13.8219 0.320499 0.516984
upperback 1.5527 0.47832 -0.629619
thorax -6.1018 0.221508 -1.04743
lowerneck -21.8723 -7.20633 -14.0354
upperneck 22.4798 -6.30063 3.94132
head 11.5848 -3.56077 2.70197
rclavicle 3.25013e-014 -9.54166e-015
rhumerus 15.2818 34.2105 -61.746
rradius 64.8505
rwrist 7.9454
rhand 3.07562 16.1654
rfingers 7.12502
rthumb 28.5328 -11.6777
lclavicle 3.25013e-014 -9.54166e-015
lhumerus -2.14185 -40.6014 87.7142
lradius 119.656
lwrist -4.55892
lhand 2.213 6.25122
lfingers 7.12502
lthumb 27.7083 34.2298
rfemur -27.3002 -7.73605 1.54489
rtibia 51.8579
rfoot -15.6358 -7.63313
rtoes 2.50403
lfemur -17.3729 -7.65391 4.51136
ltibia 55.1745
lfoot 20.0923 -17.2776
ltoes -19.1874
2038
root -4.8861 16.87 2.05306 1.06426 21.3207 9.6996
lowerback 13.5602 0.396803 0.159259
upperback 1.65387 0.527297 -0.618031
thorax -5.85187 0.255757 -0.838361
lowerneck -22.1511 -7.1184 -14.2639
upperneck 22.5643 -6.01552 3.82608
head 11.6482 -3.46579 2.73967
rclavicle 2.42517e-014 -6.36111e-015
rhumerus 12.6099 34.6105 -63.4744
rradius 66.4664
rwrist 6.99127
rhand 2.97835 16.9067
rfingers 7.12502
rthumb 28.4399 -10.952
lclavicle 2.42517e-014 -6.36111e-015
lhumerus -1.83902 -40.174 87.6281
lradius 119.727
lwrist -4.85412
lhand 1.93366 6.77196
lfingers 7.12502
lthumb 27.4411 34.7932
rfemur -27.8369 -7.78458 1.05594
rtibia 52.3445
rfoot -15.7762 -7.46287
rtoes 1.80167
lfemur -17.055 -7.27661 4.00488
ltibia 55.7435
lfoot 20.1397 -17.5732
ltoes -14.9036
2039
root -4.86319 16.8293 2.02176 1.32574 21.3352 9.85392
lowerback 13.2948 0.385917 -0.128701
upperback 1.74139 0.478901 -0.511336
thorax -5.61636 0.240366 -0.551205
lowerneck -22.3063 -6.94102 -14.4134
upperneck 22.4737 -5.62512 3.61941
head 11.6043 -3.32557 2.75089
rclavicle 8.52786e-014 -2.06736e-014
rhumerus 9.73668 34.8409 -65.5157
rradius 68.1437
rwrist 7.63326
rhand 3.08473 18.2807
rfingers 7.12502
rthumb 28.5415 -9.56099
lclavicle 8.52786e-014 -2.06736e-014
lhumerus -1.66209 -39.5328 87.6544
lradius 119.881
lwrist -5.06041
lhand 1.46329 7.29483
lfingers 7.12502
lthumb 26.9912 35.3866
rfemur -28.3659 -7.75732 0.743693
rtibia 52.8511
rfoot -15.8825 -7.29802
rtoes 1.04026
lfemur -16.6105 -6.92541 3.65473
ltibia 56.1252
lfoot 18.1401 -18.2317
ltoes -20.4771
